<?xml version="1.0" encoding="UTF-8"?>
<svg xmlns="http://www.w3.org/2000/svg" viewBox="0 0 1500 1000">
  <defs>
    <style>
      .cls-1, .cls-2, .cls-3 {
        fill: #fff;
      }

      .cls-4, .cls-5, .cls-6 {
        fill: #ffff81;
      }

      .cls-7, .cls-2, .cls-6 {
        opacity: .5;
      }

      .cls-7, .cls-8, .cls-9 {
        fill: none;
        stroke: #fff;
        stroke-miterlimit: 10;
        stroke-width: 3px;
      }

      .cls-5, .cls-3, .cls-9 {
        opacity: .75;
      }

      .cls-10 {
        opacity: .48;
      }
    </style>
  </defs>
  <g id="Layer_0___DIW_______________Do_IT_Well_Image" data-name="Layer 0 + DIW + &amp;lt;       &amp;gt; + Do IT Well Image"/>
  <g id="logo">
    <g>
      <g class="cls-10">
        <g>
          <path class="cls-8" d="M959.35,222.67l-58.44,275.49h-56.26l58.44-275.49h56.26Z"/>
          <path class="cls-8" d="M1087.07,271.24h-80.46l9.98-46.17h216.87l-9.98,46.17h-80.2l-48.41,229.32h-56.26l48.46-229.32Z"/>
        </g>
        <g>
          <path class="cls-8" d="M732.04,335.81c0,84.7-47.17,168.75-151.99,168.75-73.22,0-108.67-48.37-108.67-110.92,0-81.92,50.06-172.56,149.83-172.56,75.99,0,110.83,50.7,110.83,114.73Zm-202.2,55.67c0,41.65,18.89,67.97,57.58,67.97,61.93,0,86.86-66.95,86.86-124.44,0-40.3-16.15-68.81-56.43-68.81-58.49,0-88.01,67.01-88.01,125.28Z"/>
          <path class="cls-8" d="M322.21,225.07h88.79c72.18,0,118.2,43.09,118.2,117.13,0,88.98-57.38,158.36-158.51,158.36h-106.92l58.44-275.49Zm7.45,230.37h42.86c59.62,0,97.07-42.05,97.12-112.19,.05-48.73-23.72-73.07-65.65-73.07h-35.14l-39.19,185.26Z"/>
          <polygon class="cls-8" points="297.82 266.53 255.37 266.53 264.08 225.88 306.53 225.88 297.82 266.53"/>
          <polygon class="cls-9" points="240.65 266.53 198.2 266.53 206.91 225.88 249.36 225.88 240.65 266.53"/>
          <polygon class="cls-7" points="181.88 266.53 139.43 266.53 148.14 225.88 190.59 225.88 181.88 266.53"/>
        </g>
        <g>
          <path class="cls-8" d="M268.23,798.66l-8.9-275.49h55.86c-.93,88.65,.08,186.92-3.54,216.97h.4c12.96-37.89,70.06-153.96,98.8-216.97h49.11c2.49,52.85,7.67,169.11,5.72,214.11h.4c11.99-37.21,40.02-98.45,89.43-214.11h55.65l-131.86,275.49h-57.39c-1.13-54.32-5.51-150.12-4.97-197.65h-.4c-17.1,50.29-65.84,145.35-90.97,197.65h-57.34Z"/>
          <path class="cls-8" d="M769.01,678.2h-123.96l-15.68,74.29h141.08l-16.34,46.17h-189.92l58.44-275.49h185.05l-9.93,46.17h-129.49l-13.23,62.69h123.96l-9.98,46.17Z"/>
          <path class="cls-8" d="M836.36,523.17h56.26l-48.51,229.32h132.24l-15.89,46.17h-182.54l58.44-275.49Z"/>
          <path class="cls-8" d="M1034.1,523.17h56.26l-48.51,229.32h132.24l-15.89,46.17h-182.54l58.44-275.49Z"/>
          <path class="cls-8" d="M268.23,798.92l-8.9-275.49h55.86c-.93,88.65,.08,186.92-3.54,216.98h.4c12.96-37.89,70.06-153.96,98.8-216.98h49.11c-8.73,17.1-22.51,44.35-39.07,78.22-18.15,37.12-27.23,56.83-46.83,97.69-11.07,23.08-27.64,57.37-48.49,99.57h-57.34Z"/>
          <g>
            <polygon class="cls-8" points="1230.78 798.36 1184.86 798.36 1200.5 752.44 1246.42 752.44 1230.78 798.36"/>
            <polygon class="cls-9" points="1293.65 798.36 1247.73 798.36 1263.37 752.44 1309.29 752.44 1293.65 798.36"/>
            <polygon class="cls-7" points="1356.53 798.36 1310.61 798.36 1326.25 752.44 1372.17 752.44 1356.53 798.36"/>
          </g>
        </g>
      </g>
      <g>
        <g>
          <path class="cls-4" d="M946.73,202.67l-58.37,275.17h-56.19l58.37-275.17h56.19Z"/>
          <path class="cls-1" d="M1074.36,251.18h-80.36l9.96-46.12h216.61l-9.96,46.12h-80.11l-48.35,229.05h-56.19l48.4-229.05Z"/>
        </g>
        <g>
          <path class="cls-1" d="M719.74,315.67c0,84.6-47.11,168.55-151.81,168.55-73.14,0-108.55-48.31-108.55-110.79,0-81.82,50-172.35,149.65-172.35,75.9,0,110.7,50.64,110.7,114.59Zm-201.96,55.6c0,41.6,18.87,67.89,57.51,67.89,61.86,0,86.76-66.87,86.76-124.29,0-40.26-16.14-68.73-56.36-68.73-58.42,0-87.91,66.93-87.91,125.14Z"/>
          <path class="cls-4" d="M310.4,205.07h88.69c72.1,0,118.06,43.04,118.06,116.99,0,88.87-57.31,158.18-158.32,158.18h-106.79l58.37-275.17Zm7.44,230.1h42.81c59.55,0,96.96-42,97-112.06,.05-48.67-23.69-72.98-65.57-72.98h-35.1l-39.14,185.04Z"/>
          <polygon class="cls-4" points="286.03 246.48 243.63 246.48 252.33 205.88 294.73 205.88 286.03 246.48"/>
          <polygon class="cls-5" points="228.93 246.48 186.53 246.48 195.23 205.88 237.63 205.88 228.93 246.48"/>
          <polygon class="cls-6" points="170.23 246.48 127.83 246.48 136.53 205.88 178.93 205.88 170.23 246.48"/>
        </g>
        <g>
          <path class="cls-1" d="M256.48,777.98l-8.89-275.17h55.79c-.93,88.55,.08,186.71-3.53,216.72h.4c12.95-37.84,69.98-153.78,98.68-216.72h49.05c2.49,52.79,7.66,168.91,5.71,213.86h.4c11.97-37.17,39.97-98.34,89.32-213.86h55.59l-131.71,275.17h-57.33c-1.13-54.26-5.51-149.94-4.96-197.41h-.4c-17.08,50.23-65.77,145.18-90.86,197.41h-57.28Z"/>
          <path class="cls-1" d="M756.67,657.66h-123.82l-15.66,74.2h140.92l-16.32,46.12h-189.7l58.37-275.17h184.83l-9.92,46.12h-129.34l-13.22,62.61h123.82l-9.96,46.12Z"/>
          <path class="cls-1" d="M823.94,502.81h56.19l-48.45,229.05h132.09l-15.87,46.12h-182.32l58.37-275.17Z"/>
          <path class="cls-1" d="M1021.46,502.81h56.19l-48.45,229.05h132.09l-15.87,46.12h-182.32l58.37-275.17Z"/>
          <path class="cls-4" d="M256.48,778.25l-8.89-275.17h55.79c-.93,88.55,.08,186.71-3.53,216.72h.4c12.95-37.84,69.98-153.78,98.68-216.72h49.05c-8.72,17.08-22.48,44.3-39.02,78.13-18.12,37.07-27.2,56.77-46.78,97.58-11.06,23.05-27.6,57.3-48.43,99.46h-57.28Z"/>
          <g>
            <polygon class="cls-1" points="1217.9 777.68 1172.03 777.68 1187.65 731.81 1233.52 731.81 1217.9 777.68"/>
            <polygon class="cls-3" points="1280.7 777.68 1234.83 777.68 1250.45 731.81 1296.32 731.81 1280.7 777.68"/>
            <polygon class="cls-2" points="1343.5 777.68 1297.63 777.68 1313.25 731.81 1359.12 731.81 1343.5 777.68"/>
          </g>
        </g>
      </g>
    </g>
  </g>
</svg>